<?xml version="1.0" encoding="UTF-8" standalone="no"?>
<svg width="332px" height="172px" viewBox="0 0 332 172" version="1.1" xmlns="http://www.w3.org/2000/svg" xmlns:xlink="http://www.w3.org/1999/xlink">
    <!-- Generator: Sketch 3.8.3 (29802) - http://www.bohemiancoding.com/sketch -->
    <title>mapAsset</title>
    <desc>Created with Sketch.</desc>
    <defs></defs>
    <g id="GT-INTRO" stroke="none" stroke-width="1" fill="none" fill-rule="evenodd">
        <g id="slideONE" transform="translate(-16.000000, -119.000000)">
            <g id="image" transform="translate(10.000000, 77.000000)">
                <g id="mapAsset" transform="translate(7.000000, 36.000000)">
                    <polygon id="Path" fill="#DFDFDF" transform="translate(164.597159, 119.823503) rotate(-180.000000) translate(-164.597159, -119.823503) " points="164.486194 177.401885 221.880926 161.531469 272.59711 173.30872 329.093815 71.4713925 247.531922 62.2451208 164.723608 77.9587552 81.8765852 62.247707 0.100504146 71.6126567 58.1765254 172.839812 106.585669 161.52371"></polygon>
                    <polygon id="Path" stroke="#4A4A4A" stroke-width="2" stroke-linecap="round" stroke-linejoin="round" fill="#FFFFFF" transform="translate(164.597159, 109.124728) rotate(-180.000000) translate(-164.597159, -109.124728) " points="164.486194 168.591129 221.880926 152.720713 272.59711 164.497964 329.093815 68.9540337 247.531922 49.6583267 164.723608 69.1479994 81.8765852 49.6609129 0.100504146 69.0952979 58.1765254 164.029056 106.585669 152.712954"></polygon>
                    <path d="M224.044935,77.0381235 L246.701165,167.663041" id="Path-1652" stroke="#4A4A4A" stroke-width="2" stroke-linecap="round" stroke-linejoin="round"></path>
                    <path d="M106.98775,65.7100088 L83.0728412,152.558888" id="Path-1652" stroke="#4A4A4A" stroke-width="2"></path>
                    <path d="M164.887003,54.3818941 L164.887003,113.539826" id="Path-1653" stroke="#4A4A4A" stroke-width="2" stroke-linecap="round" stroke-linejoin="round"></path>
                    <path d="M164.887003,128.643979 L164.887003,141.230774" id="Path-1654" stroke="#4A4A4A" stroke-width="2" stroke-linecap="round" stroke-linejoin="round"></path>
                    <g id="Group-12" transform="translate(57.640574, 60.675291)">
                        <path d="M12.5136446,28.4251443 C7.69884759,28.4251443 3.79572808,29.3737066 3.79572808,30.5427541 C3.79572808,31.7118016 7.69884759,32.6587777 12.5136446,32.6587777 C17.3268589,32.6587777 21.2299784,31.7118016 21.2299784,30.5427541 C21.2299784,29.3737066 17.3268589,28.4251443 12.5136446,28.4251443" id="Fill-72" fill="#C3C2BE"></path>
                        <path d="M21.2204818,4.48901553 C16.5038167,-0.215726541 8.88276219,-0.177657152 4.16609709,4.52708492 C-0.550568013,9.231827 -0.585389031,16.8504636 4.13127607,21.5552057 L12.6529287,30.0066102 L21.1935747,21.4885842 C25.9102398,16.7838422 25.9371469,9.19375761 21.2204818,4.48901553 L21.2204818,4.48901553 Z M12.6782531,18.8506928 C9.45414343,18.8506928 6.84098434,16.231836 6.84098434,13.0022828 C6.84098434,9.77114335 9.45414343,7.15228658 12.6782531,7.15228658 C15.90078,7.15228658 18.5139391,9.77114335 18.5139391,13.0022828 C18.5139391,16.231836 15.90078,18.8506928 12.6782531,18.8506928 L12.6782531,18.8506928 Z" id="Fill-73" fill="#FFFFFF"></path>
                        <path d="M21.9074055,5.32495588 C17.1907404,0.620213807 9.5696859,0.658283196 4.8530208,5.36302527 C0.136355696,10.0677673 0.103117452,17.686404 4.81978255,22.391146 L13.3414352,30.8425505 L21.8820811,22.3245246 C26.5987462,17.6197825 26.6240706,10.029698 21.9074055,5.32495588 L21.9074055,5.32495588 Z M13.3651768,19.6866331 C10.1426499,19.6866331 7.52949082,17.0677764 7.52949082,13.8382231 C7.52949082,10.6070837 10.1426499,7.98822693 13.3651768,7.98822693 C16.5892865,7.98822693 19.2008628,10.6070837 19.2008628,13.8382231 C19.2008628,17.0677764 16.5892865,19.6866331 13.3651768,19.6866331 L13.3651768,19.6866331 Z" id="Fill-74" fill="#0AA861"></path>
                        <path d="M12.6545115,30.4967536 L3.70392722,21.6186547 C1.31710474,19.2377316 0.00181994626,16.0716273 0.00181994626,12.7040726 C0.00181994626,9.3158969 1.32818416,6.12599929 3.73558269,3.72445529 C6.14456399,1.32291129 9.33860096,0 12.7304846,0 C16.0986267,0 19.2657565,1.30863527 21.6494134,3.6863859 C24.0378187,6.0688952 25.3531035,9.23341322 25.3531035,12.5930369 C25.3531035,15.970109 24.028322,19.1520755 21.6240891,21.550447 L12.6545115,30.4967536 L12.6545115,30.4967536 Z M12.7304846,1.21980669 C9.66306953,1.21980669 6.77450785,2.41740624 4.59502871,4.5905339 C2.41871512,6.76048912 1.22055556,9.64265916 1.22055556,12.7040726 C1.22055556,15.7448651 2.4076357,18.6032418 4.56179047,20.752576 L12.6513459,28.7772861 L20.764643,20.6859546 C22.9377911,18.5175856 24.1359506,15.6433467 24.1359506,12.5930369 C24.1359506,9.56017548 22.9472877,6.70338503 20.7899674,4.55246451 C18.6358126,2.40313022 15.7741581,1.21980669 12.7304846,1.21980669 L12.7304846,1.21980669 Z M12.6782531,19.0902127 C9.12334376,19.0902127 6.23319931,16.1937666 6.23319931,12.6311062 C6.23319931,9.07003209 9.12334376,6.17358602 12.6782531,6.17358602 C16.2315797,6.17358602 19.1233069,9.07003209 19.1233069,12.6311062 C19.1233069,16.1937666 16.2315797,19.0902127 12.6782531,19.0902127 L12.6782531,19.0902127 Z M12.6782531,7.39339272 C9.79602251,7.39339272 7.45035215,9.74259131 7.45035215,12.6311062 C7.45035215,15.5196212 9.79602251,17.870406 12.6782531,17.870406 C15.5604837,17.870406 17.9045713,15.5196212 17.9045713,12.6311062 C17.9045713,9.74259131 15.5604837,7.39339272 12.6782531,7.39339272 L12.6782531,7.39339272 Z" id="Fill-75" fill="#444341"></path>
                    </g>
                    <path d="M54.1232149,93.4009559 C32.7256645,99.6943534 31.4669852,133.678697 64.19265,127.3853 C96.9183148,121.091903 122.091902,103.470391 127.126621,99.6943529 C132.161339,95.9183147 151.041538,87.1075588 186.284553,121.091903 C221.527567,155.076247 279.42681,133.678699 279.42682,113.539829 C279.426831,93.4009583 264.322676,54.3818932 207.682103,77.0381235" id="Path-1664" stroke="#4A4A4A" stroke-width="1.3" stroke-linecap="round" stroke-linejoin="round" stroke-dasharray="7"></path>
                    <g id="Group-18" transform="translate(68.486047, 115.798506)">
                        <path d="M8.56715625,15.8756331 C12.9510913,15.8756331 16.5049728,12.3217516 16.5049728,7.93781654 C16.5049728,3.55388152 12.9510913,0 8.56715625,0 C4.18322122,0 0.629339706,3.55388152 0.629339706,7.93781654 C0.629339706,12.3217516 4.18322122,15.8756331 8.56715625,15.8756331 Z" id="Oval-177" fill="#FFFFFF"></path>
                        <path d="M8.56715625,15.8756331 C12.9510913,15.8756331 16.5049728,12.3217516 16.5049728,7.93781654 C16.5049728,3.55388152 12.9510913,0 8.56715625,0 C4.18322122,0 0.629339706,3.55388152 0.629339706,7.93781654 C0.629339706,12.3217516 4.18322122,15.8756331 8.56715625,15.8756331 Z" id="Oval-177" fill-opacity="0.6" fill="#C7C7C7"></path>
                        <path d="M8.56715625,13.4942881 C11.6359108,13.4942881 14.1236278,11.0065711 14.1236278,7.93781654 C14.1236278,4.86906203 11.6359108,2.38134496 8.56715625,2.38134496 C5.49840173,2.38134496 3.01068467,4.86906203 3.01068467,7.93781654 C3.01068467,11.0065711 5.49840173,13.4942881 8.56715625,13.4942881 Z" id="Oval-178" fill="#00B265"></path>
                    </g>
                    <g id="Group-17" transform="translate(119.315865, 92.142276)">
                        <path d="M8.38285793,16.5049728 C12.766793,16.5049728 16.3206745,12.9510913 16.3206745,8.56715625 C16.3206745,4.18322122 12.766793,0.629339706 8.38285793,0.629339706 C3.99892291,0.629339706 0.445041388,4.18322122 0.445041388,8.56715625 C0.445041388,12.9510913 3.99892291,16.5049728 8.38285793,16.5049728 Z" id="Oval-177" fill="#FFFFFF"></path>
                        <path d="M8.38285793,16.5049728 C12.766793,16.5049728 16.3206745,12.9510913 16.3206745,8.56715625 C16.3206745,4.18322122 12.766793,0.629339706 8.38285793,0.629339706 C3.99892291,0.629339706 0.445041388,4.18322122 0.445041388,8.56715625 C0.445041388,12.9510913 3.99892291,16.5049728 8.38285793,16.5049728 Z" id="Oval-177" fill-opacity="0.6" fill="#C7C7C7"></path>
                        <path d="M8.38285793,14.1236278 C11.4516124,14.1236278 13.9393295,11.6359108 13.9393295,8.56715625 C13.9393295,5.49840173 11.4516124,3.01068467 8.38285793,3.01068467 C5.31410341,3.01068467 2.82638635,5.49840173 2.82638635,8.56715625 C2.82638635,11.6359108 5.31410341,14.1236278 8.38285793,14.1236278 Z" id="Oval-178" fill="#00B265"></path>
                    </g>
                    <g id="Group-13" transform="translate(179.991156, 114.798506)">
                        <path d="M8.49850453,15.8756331 C12.8824396,15.8756331 16.4363211,12.3217516 16.4363211,7.93781654 C16.4363211,3.55388152 12.8824396,0 8.49850453,0 C4.11456951,0 0.560687988,3.55388152 0.560687988,7.93781654 C0.560687988,12.3217516 4.11456951,15.8756331 8.49850453,15.8756331 Z" id="Oval-177" fill="#FFFFFF"></path>
                        <path d="M8.49850453,15.8756331 C12.8824396,15.8756331 16.4363211,12.3217516 16.4363211,7.93781654 C16.4363211,3.55388152 12.8824396,0 8.49850453,0 C4.11456951,0 0.560687988,3.55388152 0.560687988,7.93781654 C0.560687988,12.3217516 4.11456951,15.8756331 8.49850453,15.8756331 Z" id="Oval-177" fill-opacity="0.6" fill="#C7C7C7"></path>
                        <path d="M8.49850453,13.4942881 C11.567259,13.4942881 14.0549761,11.0065711 14.0549761,7.93781654 C14.0549761,4.86906203 11.567259,2.38134496 8.49850453,2.38134496 C5.42975001,2.38134496 2.94203295,4.86906203 2.94203295,7.93781654 C2.94203295,11.0065711 5.42975001,13.4942881 8.49850453,13.4942881 Z" id="Oval-178" fill="#00B265"></path>
                    </g>
                    <g id="Group-16" transform="translate(193.836629, 70.744726)">
                        <path d="M7.99717692,16.5049728 C12.3811119,16.5049728 15.9349935,12.9510913 15.9349935,8.56715625 C15.9349935,4.18322122 12.3811119,0.629339706 7.99717692,0.629339706 C3.6132419,0.629339706 0.0593603773,4.18322122 0.0593603773,8.56715625 C0.0593603773,12.9510913 3.6132419,16.5049728 7.99717692,16.5049728 Z" id="Oval-177" fill="#FFFFFF"></path>
                        <path d="M7.99717692,16.5049728 C12.3811119,16.5049728 15.9349935,12.9510913 15.9349935,8.56715625 C15.9349935,4.18322122 12.3811119,0.629339706 7.99717692,0.629339706 C3.6132419,0.629339706 0.0593603773,4.18322122 0.0593603773,8.56715625 C0.0593603773,12.9510913 3.6132419,16.5049728 7.99717692,16.5049728 Z" id="Oval-177" fill-opacity="0.6" fill="#C7C7C7"></path>
                        <path d="M7.99717692,14.1236278 C11.0659314,14.1236278 13.5536485,11.6359108 13.5536485,8.56715625 C13.5536485,5.49840173 11.0659314,3.01068467 7.99717692,3.01068467 C4.9284224,3.01068467 2.44070534,5.49840173 2.44070534,8.56715625 C2.44070534,11.6359108 4.9284224,14.1236278 7.99717692,14.1236278 Z" id="Oval-178" fill="#00B265"></path>
                    </g>
                    <g id="Group-15" transform="translate(271.098715, 98.987750)">
                        <path d="M8.30692612,15.8756331 C12.6908611,15.8756331 16.2447427,12.3217516 16.2447427,7.93781654 C16.2447427,3.55388152 12.6908611,0 8.30692612,0 C3.92299109,0 0.369109575,3.55388152 0.369109575,7.93781654 C0.369109575,12.3217516 3.92299109,15.8756331 8.30692612,15.8756331 Z" id="Oval-177" fill="#FFFFFF"></path>
                        <path d="M8.30692612,15.8756331 C12.6908611,15.8756331 16.2447427,12.3217516 16.2447427,7.93781654 C16.2447427,3.55388152 12.6908611,0 8.30692612,0 C3.92299109,0 0.369109575,3.55388152 0.369109575,7.93781654 C0.369109575,12.3217516 3.92299109,15.8756331 8.30692612,15.8756331 Z" id="Oval-177" fill-opacity="0.6" fill="#C7C7C7"></path>
                        <path d="M8.30692612,13.4942881 C11.3756806,13.4942881 13.8633977,11.0065711 13.8633977,7.93781654 C13.8633977,4.86906203 11.3756806,2.38134496 8.30692612,2.38134496 C5.2381716,2.38134496 2.75045454,4.86906203 2.75045454,7.93781654 C2.75045454,11.0065711 5.2381716,13.4942881 8.30692612,13.4942881 Z" id="Oval-178" fill="#00B265"></path>
                    </g>
                    <g id="Group-22" transform="translate(105.644136, 26.087079) rotate(182.000000) translate(-105.644136, -26.087079) translate(87.144136, 15.587079)">
                        <g id="Group-12" transform="translate(10.698775, 12.998292)">
                            <path d="M0.533428335,0.485850253 C0.801527049,3.63380746 2.98155979,6.09830175 7.21953337,5.68042018 C11.4562483,5.26253862 12.3121503,3.08879928 12.7904484,2.34869578" id="Fill-9" fill="#FFFFFF"></path>
                            <path d="M0.533428335,0.485850253 C-0.689248356,3.04423872 1.53318366,6.27992717 4.89140072,7.09755174 C8.24961777,7.91517631 11.6936685,5.40604965 12.6232606,3.79146687" id="Stroke-11" stroke="#4A4A4A" stroke-linecap="round" stroke-linejoin="round"></path>
                        </g>
                        <g id="Group-16" transform="translate(21.768210, 11.739612)" stroke="#4A4A4A" stroke-linecap="round" stroke-linejoin="round">
                            <path d="M8.79805483,1.31953248 C7.88677094,5.65316569 2.1119498,5.848261 0.84320095,3.28181368" id="Stroke-15" transform="translate(4.820628, 3.135823) rotate(-20.000000) translate(-4.820628, -3.135823) "></path>
                        </g>
                        <g id="Group-20" transform="translate(0.629340, 0.152818)" stroke="#4A4A4A" stroke-linecap="round" stroke-linejoin="round">
                            <path d="M28.5145437,11.3641339 C30.5831243,13.0066672 35.4055806,12.3186303 35.4055806,8.32106691 C35.4055806,4.32350355 29.1998388,2.53411871 27.6134124,5.23436499 C27.2748276,1.96179852 21.215545,-0.108729109 17.6358607,1.82334379 C14.5080424,-1.04518659 8.32037438,-0.14900685 7.61425523,4.07763861 C5.46694816,3.54269986 3.56382489,3.82086801 3.31964108,6.6642248 C0.256015392,6.97260126 0.240911239,9.14256457 0.94577171,10.4201242 C1.65440822,11.6951664 4.0949876,11.9645238 5.08556829,11.3641337 C4.51538652,13.3062761 7.46657377,15.9098649 10.5604078,13.1911173" id="Stroke-19"></path>
                        </g>
                    </g>
                    <g id="Group-21" transform="translate(158.713846, 13.810666) rotate(-133.000000) translate(-158.713846, -13.810666) translate(149.213846, 4.810666)">
                        <g id="Group-4" transform="translate(4.405378, 8.704895)">
                            <path d="M0.680693826,6.02582261 C2.89345223,9.12091528 7.09618279,9.40160079 9.5833333,5.8181405 C11.6009964,2.90933238 10.5651032,0.806079088 9.93953958,0.0911491819" id="Fill-1" fill="#FFFFFF"></path>
                            <path d="M0.680693826,6.02582261 C2.89345223,9.12091528 7.09618279,9.40160079 9.5833333,5.8181405 C11.6009964,2.90933238 10.5651032,0.806079088 9.93953958,0.0911491819" id="Stroke-3" stroke="#4A4A4A" stroke-linecap="round" stroke-linejoin="round"></path>
                        </g>
                        <g id="Group-28" transform="translate(13.216134, 3.670177)">
                            <path d="M0.497807707,5.64154778 C2.92580029,6.29102636 4.68291675,3.3482339 3.98938439,1.97753202 C3.44941093,0.911430554 1.84459468,-0.179844495 0.750802269,0.762906384" id="Fill-25" fill="#FFFFFF"></path>
                            <path d="M0.497807707,5.64154778 C2.28057896,5.64154759 4.06335022,3.87269703 4.06335022,2.09373992 C4.06335022,0.31478281 1.59160012,-0.503722947 0.497807707,0.439027932" id="Stroke-27" stroke="#4A4A4A" stroke-linecap="round" stroke-linejoin="round"></path>
                        </g>
                        <g id="Group-32" transform="translate(0.629340, 1.411498)">
                            <path d="M11.8906185,0.503849368 C9.82512562,0.106106674 3.55060875,4.66756086 3.42599949,8.24346907 C1.02318049,8.62610761 0.129518111,11.4266693 1.1754807,13.041555 C2.48198993,15.0592181 5.69791583,14.6778382 6.31844478,12.3895591" id="Fill-29" fill="#FFFFFF"></path>
                            <path d="M8.61377595,3.74249229 C6.54828304,3.3447496 3.55060875,4.66756086 3.42599949,8.24346907 C1.02318049,8.62610761 0.129518111,11.4266693 1.1754807,13.041555 C2.48198993,15.0592181 5.69791583,14.6778382 6.31844478,12.3895591" id="Stroke-31" stroke="#4A4A4A" stroke-linecap="round" stroke-linejoin="round"></path>
                        </g>
                        <g id="Group-36" transform="translate(9.181416, 0.152818)">
                            <path d="M5.2182539,4.3556601 C7.15032679,3.13222372 6.64307899,0.711783207 4.40766436,0.25614126 C2.17476708,-0.196983328 -0.375317408,2.33673833 0.311921551,5.13352398" id="Fill-33" fill="#FFFFFF"></path>
                            <path d="M5.2182539,4.3556601 C7.15032679,3.13222372 6.64307899,0.711783207 4.40766436,0.25614126 C2.17476708,-0.196983328 -0.375317408,2.33673833 0.311921551,5.13352398" id="Stroke-35" stroke="#4A4A4A" stroke-linecap="round" stroke-linejoin="round"></path>
                        </g>
                    </g>
                    <g id="Group-21-Copy" transform="translate(216.857657, 27.948631) rotate(-133.000000) translate(-216.857657, -27.948631) translate(197.357657, 7.948631)">
                        <g id="Group-4" transform="translate(10.447766, 19.675491)">
                            <path d="M0.241105085,13.7809538 C5.11651401,20.6004251 14.376463,21.2188643 19.8564449,13.3233642 C24.3019969,6.91433691 22.0195956,2.28020249 20.6412803,0.70498504" id="Fill-1" fill="#FFFFFF"></path>
                            <path d="M0.241105085,13.7809538 C5.11651401,20.6004251 14.376463,21.2188643 19.8564449,13.3233642 C24.3019969,6.91433691 22.0195956,2.28020249 20.6412803,0.70498504" id="Stroke-3" stroke="#4A4A4A" stroke-linecap="round" stroke-linejoin="round"></path>
                        </g>
                        <g id="Group-28" transform="translate(29.601978, 9.656517)">
                            <path d="M0.0968283442,11.8601671 C5.44646646,13.2911745 9.31795159,6.80726891 7.78987974,3.78717772 C6.60014685,1.4382179 3.0642274,-0.96620732 0.654255644,1.11097202" id="Fill-25" fill="#FFFFFF"></path>
                            <path d="M1.67584734,11.8080331 C7.02548545,13.2390405 9.31795159,6.80726891 7.78987974,3.78717772 C6.60014685,1.4382179 4.0858191,-0.525591761 1.67584734,1.55158758" id="Stroke-27" stroke="#4A4A4A" stroke-linecap="round" stroke-linejoin="round"></path>
                        </g>
                        <g id="Group-32" transform="translate(0.127956, 5.109977)">
                            <path d="M26.9401264,0.110140041 C22.3891901,-0.766213326 8.56443835,9.2841177 8.28988461,17.1629782 C2.99571189,18.0060523 1.02669009,24.1765784 3.33127758,27.734684 C6.209932,32.1802361 13.2956372,31.3399352 14.6628594,26.2981301" id="Fill-29" fill="#FFFFFF"></path>
                            <path d="M19.9060397,4.71124619 C14.6628594,4.71124619 8.56443835,9.2841177 8.28988461,17.1629782 C2.99571189,18.0060523 -0.466986901,23.5047763 1.59079489,27.2844998 C4.61492036,32.8391988 10.2683287,32.6417767 12.9469667,28.3030087" id="Stroke-31" stroke="#4A4A4A" stroke-linecap="round" stroke-linejoin="round"></path>
                        </g>
                        <g id="Group-36" transform="translate(19.208060, 0.336707)">
                            <path d="M12.0016237,10.5969014 C16.2585933,7.90128277 15.1409655,2.56828427 10.2156377,1.56436048 C5.29585645,0.565983222 -0.322788878,6.14857603 1.19141662,12.3107823" id="Fill-33" fill="#FFFFFF"></path>
                            <path d="M12.0016237,10.5969014 C16.2585933,7.90128277 13.9813258,1.24220423 9.00991619,0.708271923 C4.0385066,0.174339614 -0.638914618,4.43469548 0.875290884,10.5969017" id="Stroke-35" stroke="#4A4A4A" stroke-linecap="round" stroke-linejoin="round"></path>
                        </g>
                    </g>
                </g>
            </g>
        </g>
    </g>
</svg>